<mxfile host="Electron" modified="2024-05-02T21:36:50.672Z" agent="Mozilla/5.0 (Windows NT 10.0; Win64; x64) AppleWebKit/537.36 (KHTML, like Gecko) draw.io/21.2.8 Chrome/112.0.5615.165 Electron/24.2.0 Safari/537.36" etag="ozDI25WS7NSEb3Zg7jCA" version="21.2.8" type="device">
  <diagram name="Страница 1" id="qbpidVJlZMiXg6RYo6TH">
    <mxGraphModel dx="1418" dy="820" grid="1" gridSize="10" guides="1" tooltips="1" connect="1" arrows="1" fold="1" page="1" pageScale="1" pageWidth="827" pageHeight="1169" math="0" shadow="0">
      <root>
        <mxCell id="0" />
        <mxCell id="1" parent="0" />
        <mxCell id="N_WZ4z1lAjHbls6Jonoq-1" value="Животные" style="rounded=0;whiteSpace=wrap;html=1;" vertex="1" parent="1">
          <mxGeometry x="354" y="30" width="120" height="60" as="geometry" />
        </mxCell>
        <mxCell id="N_WZ4z1lAjHbls6Jonoq-20" style="edgeStyle=orthogonalEdgeStyle;rounded=0;orthogonalLoop=1;jettySize=auto;html=1;exitX=0.5;exitY=0;exitDx=0;exitDy=0;entryX=0;entryY=0.5;entryDx=0;entryDy=0;" edge="1" parent="1" source="N_WZ4z1lAjHbls6Jonoq-4" target="N_WZ4z1lAjHbls6Jonoq-1">
          <mxGeometry relative="1" as="geometry" />
        </mxCell>
        <mxCell id="N_WZ4z1lAjHbls6Jonoq-4" value="Домашние&lt;br&gt;животные" style="rounded=0;whiteSpace=wrap;html=1;" vertex="1" parent="1">
          <mxGeometry x="190" y="120" width="120" height="60" as="geometry" />
        </mxCell>
        <mxCell id="N_WZ4z1lAjHbls6Jonoq-19" style="edgeStyle=orthogonalEdgeStyle;rounded=0;orthogonalLoop=1;jettySize=auto;html=1;exitX=0.5;exitY=0;exitDx=0;exitDy=0;entryX=1;entryY=0.5;entryDx=0;entryDy=0;" edge="1" parent="1" source="N_WZ4z1lAjHbls6Jonoq-5" target="N_WZ4z1lAjHbls6Jonoq-1">
          <mxGeometry relative="1" as="geometry" />
        </mxCell>
        <mxCell id="N_WZ4z1lAjHbls6Jonoq-5" value="Вьючные&lt;br&gt;&amp;nbsp;животные" style="rounded=0;whiteSpace=wrap;html=1;" vertex="1" parent="1">
          <mxGeometry x="510" y="120" width="120" height="60" as="geometry" />
        </mxCell>
        <mxCell id="N_WZ4z1lAjHbls6Jonoq-13" style="edgeStyle=orthogonalEdgeStyle;rounded=0;orthogonalLoop=1;jettySize=auto;html=1;exitX=0.5;exitY=0;exitDx=0;exitDy=0;entryX=0;entryY=0.5;entryDx=0;entryDy=0;" edge="1" parent="1" source="N_WZ4z1lAjHbls6Jonoq-6" target="N_WZ4z1lAjHbls6Jonoq-4">
          <mxGeometry relative="1" as="geometry" />
        </mxCell>
        <mxCell id="N_WZ4z1lAjHbls6Jonoq-6" value="Собаки" style="rounded=0;whiteSpace=wrap;html=1;" vertex="1" parent="1">
          <mxGeometry x="110" y="240" width="70" height="40" as="geometry" />
        </mxCell>
        <mxCell id="N_WZ4z1lAjHbls6Jonoq-14" style="edgeStyle=orthogonalEdgeStyle;rounded=0;orthogonalLoop=1;jettySize=auto;html=1;entryX=0.5;entryY=1;entryDx=0;entryDy=0;" edge="1" parent="1" source="N_WZ4z1lAjHbls6Jonoq-7" target="N_WZ4z1lAjHbls6Jonoq-4">
          <mxGeometry relative="1" as="geometry" />
        </mxCell>
        <mxCell id="N_WZ4z1lAjHbls6Jonoq-7" value="Кошки" style="rounded=0;whiteSpace=wrap;html=1;" vertex="1" parent="1">
          <mxGeometry x="215" y="240" width="70" height="40" as="geometry" />
        </mxCell>
        <mxCell id="N_WZ4z1lAjHbls6Jonoq-15" style="edgeStyle=orthogonalEdgeStyle;rounded=0;orthogonalLoop=1;jettySize=auto;html=1;exitX=0.5;exitY=0;exitDx=0;exitDy=0;entryX=1;entryY=0.5;entryDx=0;entryDy=0;" edge="1" parent="1" source="N_WZ4z1lAjHbls6Jonoq-8" target="N_WZ4z1lAjHbls6Jonoq-4">
          <mxGeometry relative="1" as="geometry" />
        </mxCell>
        <mxCell id="N_WZ4z1lAjHbls6Jonoq-8" value="Хомяки" style="rounded=0;whiteSpace=wrap;html=1;" vertex="1" parent="1">
          <mxGeometry x="320" y="240" width="70" height="40" as="geometry" />
        </mxCell>
        <mxCell id="N_WZ4z1lAjHbls6Jonoq-17" style="edgeStyle=orthogonalEdgeStyle;rounded=0;orthogonalLoop=1;jettySize=auto;html=1;exitX=0.5;exitY=0;exitDx=0;exitDy=0;entryX=0;entryY=0.5;entryDx=0;entryDy=0;" edge="1" parent="1" source="N_WZ4z1lAjHbls6Jonoq-9" target="N_WZ4z1lAjHbls6Jonoq-5">
          <mxGeometry relative="1" as="geometry" />
        </mxCell>
        <mxCell id="N_WZ4z1lAjHbls6Jonoq-9" value="Лошади" style="rounded=0;whiteSpace=wrap;html=1;" vertex="1" parent="1">
          <mxGeometry x="430" y="240" width="70" height="40" as="geometry" />
        </mxCell>
        <mxCell id="N_WZ4z1lAjHbls6Jonoq-16" style="edgeStyle=orthogonalEdgeStyle;rounded=0;orthogonalLoop=1;jettySize=auto;html=1;exitX=0.5;exitY=0;exitDx=0;exitDy=0;entryX=0.5;entryY=1;entryDx=0;entryDy=0;" edge="1" parent="1" source="N_WZ4z1lAjHbls6Jonoq-10" target="N_WZ4z1lAjHbls6Jonoq-5">
          <mxGeometry relative="1" as="geometry" />
        </mxCell>
        <mxCell id="N_WZ4z1lAjHbls6Jonoq-10" value="Верблюды" style="rounded=0;whiteSpace=wrap;html=1;" vertex="1" parent="1">
          <mxGeometry x="535" y="240" width="70" height="40" as="geometry" />
        </mxCell>
        <mxCell id="N_WZ4z1lAjHbls6Jonoq-18" style="edgeStyle=orthogonalEdgeStyle;rounded=0;orthogonalLoop=1;jettySize=auto;html=1;exitX=0.5;exitY=0;exitDx=0;exitDy=0;entryX=1;entryY=0.5;entryDx=0;entryDy=0;" edge="1" parent="1" source="N_WZ4z1lAjHbls6Jonoq-11" target="N_WZ4z1lAjHbls6Jonoq-5">
          <mxGeometry relative="1" as="geometry" />
        </mxCell>
        <mxCell id="N_WZ4z1lAjHbls6Jonoq-11" value="Ослы" style="rounded=0;whiteSpace=wrap;html=1;" vertex="1" parent="1">
          <mxGeometry x="640" y="240" width="70" height="40" as="geometry" />
        </mxCell>
      </root>
    </mxGraphModel>
  </diagram>
</mxfile>
